<?xml version="1.0" encoding="UTF-8"?>
<svg version="1.1" xmlns="http://www.w3.org/2000/svg" width="275" height="183">
<path d="M0 0 C90.75 0 181.5 0 275 0 C275 60.39 275 120.78 275 183 C184.25 183 93.5 183 0 183 C0 122.61 0 62.22 0 0 Z " fill="#FEFEFE" transform="translate(0,0)"/>
<path d="M0 0 C1.50566528 -0.0129007 1.50566528 -0.0129007 3.04174805 -0.02606201 C4.14721985 -0.03032196 5.25269165 -0.03458191 6.3916626 -0.03897095 C8.13328674 -0.05123718 8.13328674 -0.05123718 9.91009521 -0.06375122 C13.76625039 -0.08863682 17.62236868 -0.1051292 21.47857666 -0.11953735 C22.79316109 -0.12486103 24.10774551 -0.13018471 25.46216583 -0.13566971 C30.98668858 -0.15729986 36.51120841 -0.1760356 42.03576279 -0.1872921 C49.95030192 -0.20352467 57.86434959 -0.23668313 65.77870345 -0.29369295 C71.34482126 -0.33241853 76.91080777 -0.35192793 82.47705674 -0.35721266 C85.80077203 -0.36086317 89.12384337 -0.37535423 92.4474411 -0.4053154 C96.15839651 -0.43686021 99.86810884 -0.43701882 103.5791626 -0.42959595 C104.67653748 -0.44600128 105.77391235 -0.46240662 106.90454102 -0.47930908 C115.21638872 -0.4111927 115.21638872 -0.4111927 118.9107666 2.56536865 C122.44910976 6.49053155 122.43747406 9.26811429 122.56060791 14.34921265 C122.58138901 15.05665619 122.6021701 15.76409973 122.62358093 16.49298096 C122.68901244 18.7548544 122.7479314 21.01684477 122.80670166 23.27890015 C122.84989299 24.81146436 122.89350748 26.34401672 122.93756104 27.8765564 C123.04468721 31.63555088 123.14597256 35.39466307 123.24420166 39.15390015 C123.89791748 38.77169312 124.5516333 38.38948608 125.22515869 37.99569702 C126.141521 37.46009155 127.0578833 36.92448608 128.00201416 36.37265015 C129.01416992 35.78105103 130.02632568 35.1894519 131.06915283 34.57992554 C134.37380173 32.65121539 137.68201599 30.72871829 140.99029541 28.8062439 C144.60556169 26.70298375 148.20697415 24.58305747 151.77935791 22.4078064 C152.41148193 22.02882202 153.04360596 21.64983765 153.69488525 21.2593689 C155.31452192 20.28676729 156.92618058 19.30091432 158.53717041 18.3140564 C161.65930255 16.97599977 163.0844923 16.98093522 166.24420166 18.15390015 C167.65266737 20.97083156 167.38705357 23.33314967 167.40533447 26.48373413 C167.41029938 27.13269653 167.41526428 27.78165894 167.42037964 28.45028687 C167.4350022 30.60019993 167.44180285 32.75003925 167.44732666 34.8999939 C167.4530774 36.39210513 167.45883514 37.88421633 167.46459961 39.37632751 C167.47510942 42.50604599 167.48095242 45.63573877 167.48443604 48.76547241 C167.4899252 52.7784581 167.51396196 56.79110524 167.54240799 60.80398464 C167.56101748 63.88631691 167.56623902 66.96856729 167.56777191 70.050951 C167.57080208 71.53055742 167.57884291 73.01016227 167.59195709 74.48971367 C167.60898549 76.55829644 167.60714604 78.62604749 167.60064697 80.69467163 C167.60611542 82.46100197 167.60611542 82.46100197 167.61169434 84.26301575 C167.24420166 87.15390015 167.24420166 87.15390015 165.86529541 89.06376648 C164.24420166 90.15390015 164.24420166 90.15390015 161.95025635 90.05526733 C158.67583546 88.96458149 155.93282547 87.46716421 152.94732666 85.73202515 C152.3542572 85.39016174 151.76118774 85.04829834 151.15014648 84.69607544 C149.2609392 83.6052488 147.37749375 82.50490168 145.49420166 81.40390015 C144.244586 80.67927862 142.9945891 79.95531411 141.74420166 79.23202515 C139.92131312 78.17742871 138.09872253 77.12236064 136.277771 76.06442261 C131.63260991 73.36732656 126.95543106 70.73363521 122.24420166 68.15390015 C122.27038574 69.09185425 122.29656982 70.02980835 122.32354736 70.9961853 C122.40907021 74.49634315 122.47159258 77.99538157 122.51885986 81.4961853 C122.54391261 83.00743188 122.57796543 84.51855839 122.62139893 86.02938843 C122.68246856 88.20921516 122.71050082 90.38743277 122.73248291 92.56796265 C122.75866699 93.87716675 122.78485107 95.18637085 122.81182861 96.5352478 C122.0571094 101.34662335 120.75254472 102.81089103 117.24420166 106.15390015 C113.82530496 107.81435666 111.0695341 108.40804339 107.28622437 108.43478394 C106.31342529 108.44620422 105.34062622 108.45762451 104.33834839 108.46939087 C103.28263641 108.47162659 102.22692444 108.4738623 101.13922119 108.47616577 C100.01832092 108.48609558 98.89742065 108.49602539 97.74255371 108.5062561 C94.03734883 108.53544815 90.3323151 108.5490934 86.62701416 108.56015015 C84.05018103 108.57165578 81.47334794 108.58317121 78.89651489 108.59469604 C74.18464101 108.6130175 69.47283544 108.62562499 64.76093209 108.63168955 C57.83756688 108.64065115 50.91499137 108.67575873 43.99186623 108.73369074 C37.98344585 108.78221392 31.97539787 108.79758179 25.96676254 108.80104065 C23.41586885 108.80709244 20.86497844 108.82314548 18.3142128 108.84941101 C14.74485742 108.88354668 11.17742385 108.8797706 7.60797119 108.86679077 C6.55630768 108.88522034 5.50464417 108.9036499 4.42111206 108.92263794 C-1.71276603 108.85281138 -5.10201797 107.99240784 -9.52639961 103.63665009 C-12.54600384 99.99477387 -11.92619745 95.98469043 -11.94866943 91.48495483 C-11.95684692 90.58721848 -11.96502441 89.68948212 -11.97344971 88.76454163 C-11.99832098 85.78495963 -12.01482474 82.80542535 -12.02923584 79.82577515 C-12.03455952 78.8090699 -12.03988319 77.79236465 -12.04536819 76.74485016 C-12.07210814 71.36281589 -12.09147978 65.98080488 -12.105896 60.59872437 C-12.12253997 55.03892608 -12.16731351 49.479721 -12.21826744 43.92014694 C-12.25192269 39.64616209 -12.26347161 35.37231828 -12.26912308 31.0982132 C-12.27584099 29.04888631 -12.29107703 26.99956888 -12.31501389 24.95037079 C-12.3466291 22.07989691 -12.34670751 19.21102583 -12.33929443 16.34042358 C-12.35569977 15.49551865 -12.3721051 14.65061371 -12.38900757 13.78010559 C-12.34482251 9.59517605 -12.0210854 6.95704928 -9.34432983 3.64224243 C-5.95965187 0.38856855 -4.54808798 0.02895436 0 0 Z " fill="#333333" transform="translate(59.75579833984375,37.846099853515625)"/>
</svg>
